#!OML:ASF H:\Pregnant\Project 1\Capture day 1\Session 1\femalepreg.ASF
:FULLY-SPECIFIED
:DEGREES
636
root -2.98773 16.0403 -21.1053 24.3004 -29.9561 -1.67726
lowerback -10.8213 2.95253 11.5919
upperback -4.98469 2.57861 4.10055
thorax 1.10486 1.11681 -1.87782
lowerneck -17.0475 7.18472 10.3866
upperneck 24.6032 11.2441 -14.4934
head 12.4658 4.28791 -5.43398
rclavicle 5.88403e-014 -2.8625e-014
rhumerus -13.11 20.4052 -81.7029
rradius 38.1503
rwrist -15.2876
rhand -24.4809 -21.0731
rfingers 7.12502
rthumb 2.01292 -51.0433
lclavicle 5.88403e-014 -2.8625e-014
lhumerus -49.4612 -1.52166 70.5959
lradius 34.2262
lwrist 45.1179
lhand -30.4262 -1.66521
lfingers 7.12502
lthumb -3.72901 28.2819
rfemur -36.7747 10.3012 12.7715
rtibia 41.2207
rfoot -19.836 -9.43541
rtoes -32.0017
lfemur -55.5287 -3.74748 -24.8543
ltibia 60.5722
lfoot -6.08384 -3.64694
ltoes -22.9964
637
root -3.06639 16.0585 -20.9984 24.4459 -29.7665 -1.70763
lowerback -10.8866 2.99203 11.5451
upperback -4.99341 2.62915 4.02412
thorax 1.13915 1.14386 -1.92342
lowerneck -17.0471 7.15605 10.3025
upperneck 24.5579 11.2467 -14.5759
head 12.4494 4.27254 -5.44993
rclavicle 1.19271e-014 -7.63333e-014
rhumerus -12.3398 20.2408 -81.7822
rradius 39.0772
rwrist -15.4038
rhand -23.9538 -20.3969
rfingers 7.12502
rthumb 2.522 -50.3617
lclavicle 1.19271e-014 -7.63333e-014
lhumerus -49.7292 -1.49957 69.9162
lradius 33.3099
lwrist 44.5802
lhand -29.9415 -1.36077
lfingers 7.12502
lthumb -3.26095 28.594
rfemur -36.1083 10.3377 12.974
rtibia 40.8256
rfoot -19.7657 -9.44267
rtoes -31.9888
lfemur -56.0805 -3.2942 -24.9837
ltibia 58.8654
lfoot -6.27339 -2.97247
ltoes -23.2696
638
root -3.14354 16.0763 -20.89 24.6198 -29.5953 -1.7681
lowerback -10.9613 3.04234 11.5283
upperback -5.00249 2.69018 3.92225
thorax 1.18166 1.17587 -2.01016
lowerneck -17.0449 7.11716 10.2166
upperneck 24.4931 11.2278 -14.6436
head 12.4203 4.24963 -5.46265
rclavicle 2.20651e-014 3.81667e-014
rhumerus -11.6161 20.0654 -81.8983
rradius 39.9841
rwrist -15.5698
rhand -23.544 -19.7802
rfingers 7.12502
rthumb 2.91773 -49.74
lclavicle 2.20651e-014 3.81667e-014
lhumerus -49.9646 -1.48062 69.201
lradius 32.3987
lwrist 43.9093
lhand -29.4901 -1.02919
lfingers 7.12502
lthumb -2.82504 28.9318
rfemur -35.4596 10.3747 13.1897
rtibia 40.4091
rfoot -19.68 -9.3891
rtoes -31.9367
lfemur -56.6051 -2.85635 -25.0795
ltibia 57.1089
lfoot -6.41119 -2.26698
ltoes -23.4464
639
root -3.21889 16.0937 -20.78 24.8197 -29.4385 -1.85546
lowerback -11.0482 3.0935 11.5285
upperback -5.01089 2.74879 3.81191
thorax 1.23233 1.20673 -2.11471
lowerneck -17.0416 7.07226 10.1017
upperneck 24.4102 11.2009 -14.6942
head 12.3793 4.22281 -5.46398
rclavicle -3.61788e-014 2.38542e-014
rhumerus -10.9387 19.9414 -82.0325
rradius 40.8741
rwrist -15.8227
rhand -23.2841 -19.2609
rfingers 7.12502
rthumb 3.16869 -49.2171
lclavicle -3.61788e-014 2.38542e-014
lhumerus -50.1725 -1.39928 68.4406
lradius 31.4766
lwrist 43.1107
lhand -29.0566 -0.800157
lfingers 7.12502
lthumb -2.40633 29.166
rfemur -34.8245 10.4025 13.4172
rtibia 39.9712
rfoot -19.526 -9.31656
rtoes -32.1217
lfemur -57.1013 -2.44434 -25.1387
ltibia 55.3126
lfoot -6.50069 -1.55655
ltoes -23.5307
640
root -3.29242 16.1108 -20.6684 25.0383 -29.2974 -1.96886
lowerback -11.1387 3.13372 11.5301
upperback -5.01999 2.79185 3.71454
thorax 1.28194 1.22978 -2.20822
lowerneck -17.0396 7.03009 9.9307
upperneck 24.3189 11.1886 -14.7299
head 12.333 4.19898 -5.44646
rclavicle 5.1684e-015 -4.77083e-014
rhumerus -10.3129 19.9255 -82.1635
rradius 41.75
rwrist -16.1924
rhand -23.1547 -18.8456
rfingers 7.12502
rthumb 3.29372 -48.7999
lclavicle 5.1684e-015 -4.77083e-014
lhumerus -50.3706 -1.17802 67.6221
lradius 30.5347
lwrist 42.1704
lhand -28.657 -0.685494
lfingers 7.12502
lthumb -2.02049 29.2847
rfemur -34.1954 10.4178 13.6567
rtibia 39.5133
rfoot -19.3065 -9.21872
rtoes -32.5243
lfemur -57.5572 -2.06607 -25.154
ltibia 53.4782
lfoot -6.52953 -0.87025
ltoes -23.481
641
root -3.36423 16.1277 -20.5551 25.261 -29.1691 -2.09441
lowerback -11.2276 3.1614 11.5214
upperback -5.02936 2.81947 3.62601
thorax 1.32782 1.24516 -2.28901
lowerneck -17.0518 6.99317 9.71798
upperneck 24.2365 11.1941 -14.7581
head 12.2929 4.17907 -5.41561
rclavicle 2.22639e-014 -3.65764e-014
rhumerus -9.7462 20.0231 -82.2861
rradius 42.6107
rwrist -16.6853
rhand -23.1695 -18.5432
rfingers 7.12502
rthumb 3.27936 -48.4977
lclavicle 2.22639e-014 -3.65764e-014
lhumerus -50.5513 -0.80347 66.7275
lradius 29.5613
lwrist 41.0964
lhand -28.2871 -0.726769
lfingers 7.12502
lthumb -1.6632 29.2465
rfemur -33.562 10.4167 13.8971
rtibia 39.037
rfoot -19.0528 -9.07334
rtoes -32.9853
lfemur -57.9551 -1.73721 -25.126
ltibia 51.6064
lfoot -6.4944 -0.223486
ltoes -23.2832
642
root -3.43448 16.1441 -20.4401 25.4805 -29.0508 -2.22592
lowerback -11.3079 3.18403 11.5018
upperback -5.04535 2.84378 3.53257
thorax 1.36149 1.25826 -2.37001
lowerneck -17.0742 6.95412 9.48448
upperneck 24.1733 11.2006 -14.7738
head 12.2605 4.15816 -5.37668
rclavicle -2.20651e-014 -2.22639e-014
rhumerus -9.26524 20.2093 -82.4035
rradius 43.4634
rwrist -17.3013
rhand -23.324 -18.346
rfingers 7.12502
rthumb 3.13022 -48.3027
lclavicle -2.20651e-014 -2.22639e-014
lhumerus -50.7023 -0.286004 65.7303
lradius 28.5462
lwrist 39.8974
lhand -27.9773 -0.740853
lfingers 7.12502
lthumb -1.36402 29.2345
rfemur -32.9192 10.3986 14.1337
rtibia 38.5444
rfoot -18.7765 -8.88638
rtoes -33.4835
lfemur -58.2838 -1.47203 -25.0466
ltibia 49.7005
lfoot -6.40816 0.393554
ltoes -22.9704
643
root -3.50349 16.1597 -20.323 25.6914 -28.9357 -2.3619
lowerback -11.3798 3.19119 11.4569
upperback -5.07974 2.85282 3.45387
thorax 1.36749 1.26224 -2.42466
lowerneck -17.0424 6.90912 9.20471
upperneck 24.1082 11.2127 -14.7822
head 12.2136 4.13858 -5.32664
rclavicle 2.70347e-014 -3.49861e-014
rhumerus -8.9063 20.5279 -82.4973
rradius 44.3164
rwrist -18.0347
rhand -23.5798 -18.2247
rfingers 7.12502
rthumb 2.88314 -48.1849
lclavicle 2.70347e-014 -3.49861e-014
lhumerus -50.8669 0.412423 64.6289
lradius 27.4887
lwrist 38.579
lhand -27.7424 -0.798528
lfingers 7.12502
lthumb -1.1371 29.1782
rfemur -32.2596 10.3657 14.3675
rtibia 38.0406
rfoot -18.4999 -8.65945
rtoes -33.9571
lfemur -58.5363 -1.28411 -24.9033
ltibia 47.7699
lfoot -6.2986 1.00116
ltoes -22.5861
644
root -3.57151 16.1744 -20.204 25.8962 -28.8144 -2.49868
lowerback -11.4625 3.19746 11.3954
upperback -5.12381 2.86193 3.36687
thorax 1.36895 1.26589 -2.47873
lowerneck -16.9822 6.85024 8.91307
upperneck 24.0492 11.2066 -14.7798
head 12.159 4.1122 -5.27435
rclavicle -1.98785e-014 1.74931e-014
rhumerus -8.66791 20.9168 -82.5668
rradius 45.1746
rwrist -18.851
rhand -23.8988 -18.1396
rfingers 7.12502
rthumb 2.5751 -48.1038
lclavicle -1.98785e-014 1.74931e-014
lhumerus -50.9936 1.24968 63.4103
lradius 26.3776
lwrist 37.1766
lhand -27.5673 -0.70748
lfingers 7.12502
lthumb -0.968035 29.2701
rfemur -31.5884 10.3172 14.5976
rtibia 37.5302
rfoot -18.2495 -8.41203
rtoes -34.4349
lfemur -58.7203 -1.18684 -24.6847
ltibia 45.8301
lfoot -6.15154 1.6136
ltoes -22.1909
645
root -3.63881 16.1875 -20.0829 26.0912 -28.6777 -2.63371
lowerback -11.5664 3.21435 11.3335
upperback -5.16152 2.88264 3.24599
thorax 1.39182 1.27639 -2.56543
lowerneck -16.9558 6.77832 8.64504
upperneck 24.0137 11.1703 -14.7593
head 12.1162 4.07456 -5.2249
rclavicle -3.37934e-015 -8.74653e-014
rhumerus -8.53108 21.3072 -82.6214
rradius 46.0384
rwrist -19.7095
rhand -24.2485 -18.0759
rfingers 7.12502
rthumb 2.23733 -48.0439
lclavicle -3.37934e-015 -8.74653e-014
lhumerus -51.028 2.19102 62.0635
lradius 25.2126
lwrist 35.7502
lhand -27.5103 -0.58236
lfingers 7.12502
lthumb -0.912907 29.3954
rfemur -30.9034 10.2551 14.8253
rtibia 37.0211
rfoot -17.9996 -8.13855
rtoes -34.8832
lfemur -58.8411 -1.18839 -24.383
ltibia 43.9039
lfoot -5.99368 2.24041
ltoes -21.8617
646
root -3.70579 16.1989 -19.9597 26.2764 -28.523 -2.7671
lowerback -11.6993 3.24098 11.265
upperback -5.18921 2.91298 3.09492
thorax 1.44368 1.29333 -2.67725
lowerneck -16.9595 6.69246 8.39287
upperneck 24.0027 11.1027 -14.7111
head 12.0835 4.02563 -5.17347
rclavicle 5.36719e-014 7.79236e-014
rhumerus -8.49204 21.6786 -82.6575
rradius 46.8986
rwrist -20.5537
rhand -24.5716 -17.9894
rfingers 7.12502
rthumb 1.92534 -47.9605
lclavicle 5.36719e-014 7.79236e-014
lhumerus -50.9685 3.24044 60.6045
lradius 23.9928
lwrist 34.3506
lhand -27.645 -0.445293
lfingers 7.12502
lthumb -1.04305 29.5319
rfemur -30.2052 10.1904 15.051
rtibia 36.5199
rfoot -17.7448 -7.86239
rtoes -35.3534
lfemur -58.9033 -1.29153 -23.9901
ltibia 42.016
lfoot -5.8272 2.88739
ltoes -21.5985
647
root -3.77274 16.208 -19.8343 26.4551 -28.3369 -2.8961
lowerback -11.8833 3.27711 11.1921
upperback -5.19386 2.94858 2.9069
thorax 1.5503 1.31611 -2.82187
lowerneck -17.0244 6.59785 8.18129
upperneck 24.0206 11.0044 -14.6371
head 12.0708 3.96627 -5.12462
rclavicle 1.66979e-014 -2.8625e-014
rhumerus -8.53217 21.9979 -82.6807
rradius 47.7517
rwrist -21.3253
rhand -24.838 -17.8488
rfingers 7.12502
rthumb 1.66807 -47.822
lclavicle 1.66979e-014 -2.8625e-014
lhumerus -50.7916 4.39223 59.0455
lradius 22.7197
lwrist 33.0347
lhand -28.0368 -0.40561
lfingers 7.12502
lthumb -1.42146 29.5694
rfemur -29.4977 10.1295 15.2774
rtibia 36.0324
rfoot -17.4555 -7.61869
rtoes -35.9396
lfemur -58.9223 -1.50102 -23.5031
ltibia 40.192
lfoot -5.65464 3.55066
ltoes -21.4372
648
root -3.84009 16.2145 -19.7067 26.6257 -28.1202 -3.02575
lowerback -12.1065 3.31892 11.1149
upperback -5.18426 2.98719 2.68472
thorax 1.69545 1.34257 -2.99739
lowerneck -17.132 6.49509 7.99586
upperneck 24.07 10.8753 -14.5143
head 12.0728 3.89855 -5.06724
rclavicle -7.55382e-015 -3.18055e-014
rhumerus -8.67187 22.2472 -82.7116
rradius 48.5873
rwrist -21.9762
rhand -24.9773 -17.6128
rfingers 7.12502
rthumb 1.53348 -47.587
lclavicle -7.55382e-015 -3.18055e-014
lhumerus -50.533 5.63554 57.4025
lradius 21.4292
lwrist 31.8446
lhand -28.7481 -0.322198
lfingers 7.12502
lthumb -2.10845 29.6471
rfemur -28.7768 10.0856 15.5104
rtibia 35.5627
rfoot -17.1276 -7.41544
rtoes -36.6262
lfemur -58.9005 -1.80805 -22.9202
ltibia 38.4546
lfoot -5.48058 4.21986
ltoes -21.2719
649
root -3.90815 16.2187 -19.5767 26.7791 -27.8725 -3.15412
lowerback -12.3535 3.33071 10.9851
upperback -5.18312 2.98936 2.49176
thorax 1.8362 1.3511 -3.11806
lowerneck -17.1851 6.39552 7.7605
upperneck 24.1306 10.7597 -14.3568
head 12.0648 3.83816 -4.98649
rclavicle -3.16068e-014 -9.54166e-015
rhumerus -8.95842 22.5436 -82.7217
rradius 49.4035
rwrist -22.4827
rhand -24.9455 -17.225
rfingers 7.12502
rthumb 1.56417 -47.199
lclavicle -3.16068e-014 -9.54166e-015
lhumerus -50.3386 7.02254 55.7384
lradius 20.2014
lwrist 30.8613
lhand -29.8397 -0.111264
lfingers 7.12502
lthumb -3.16264 29.845
rfemur -28.0331 10.0729 15.7499
rtibia 35.1137
rfoot -16.7876 -7.24693
rtoes -37.3017
lfemur -58.8323 -2.20991 -22.246
ltibia 36.8217
lfoot -5.3252 4.90387
ltoes -21.0623
